<?xml version="1.0" encoding="UTF-8" standalone="no" ?>
<!DOCTYPE svg PUBLIC "-//W3C//DTD SVG 1.1//EN" "http://www.w3.org/Graphics/SVG/1.1/DTD/svg11.dtd">
<svg xmlns="http://www.w3.org/2000/svg" xmlns:xlink="http://www.w3.org/1999/xlink" version="1.1" width="640" height="640" viewBox="0 0 640 640" xml:space="preserve">
<desc>Created with Fabric.js 4.6.0</desc>
<defs>
</defs>
<g transform="matrix(1 0 0 1 320 320)" id="177B5pys4G2kKP-0Oy8Ej"  >
<path style="stroke: none; stroke-width: 1; stroke-dasharray: none; stroke-linecap: butt; stroke-dashoffset: 0; stroke-linejoin: miter; stroke-miterlimit: 4; fill: rgb(246,67,17); fill-rule: nonzero; opacity: 1;" vector-effect="non-scaling-stroke"  transform=" translate(0, 0)" d="M -10.5 -12 L 10.5 -12 L 8.59 9.562999999999999 L -0.022999999999999687 11.999999999999998 L -8.587 9.561999999999998 z M -3.469 -2.25 L -3.701 -4.968 L 6.357999999999999 -4.965 L 6.587999999999999 -7.587 L -6.588000000000001 -7.59 L -5.890000000000001 0.41999999999999993 L 3.235999999999999 0.41999999999999993 L 2.909999999999999 3.846 L -1.3322676295501878e-15 4.65 L -2.9550000000000014 3.8400000000000003 L -3.1430000000000016 1.7300000000000004 L -5.752000000000002 1.7300000000000004 L -5.4220000000000015 5.901000000000001 L -1.7763568394002505e-15 7.351000000000001 L 5.378999999999998 5.908000000000001 L 6.1229999999999976 -2.2489999999999988 L -3.469000000000003 -2.2489999999999988 z" stroke-linecap="round" />
</g>
<g transform="matrix(1 0 0 1 324.6 310.89)" id="9F7ZFF2eY7a6SYghc9ayv"  >
<path style="stroke: rgb(0,0,0); stroke-width: 1; stroke-dasharray: none; stroke-linecap: butt; stroke-dashoffset: 0; stroke-linejoin: miter; stroke-miterlimit: 4; fill: rgb(255,255,255); fill-opacity: 0; fill-rule: nonzero; opacity: 1;" vector-effect="non-scaling-stroke"  transform=" translate(0, 0)" d="M 0 0 z" stroke-linecap="round" />
</g>
</svg>